PathFileType	4	(X/Y/Z)	D:\TRACE\spot_10-12-23\spot_arm_motion_3_3-platform.trc
DataRate	CameraRate	NumFrames	NumMarkers	Units	OrigDataRate	OrigDataStartFrame	OrigNumFrames
100.00	100.00	      54	5	mm	100.00	2626	      7000
Frame#	Time	Left_Front			Right_Front			Left_Aft			Right_Aft			Post			
		X1	Y1	Z1	X2	Y2	Z2	X3	Y3	Z3	X4	Y4	Z4	X5	Y5	Z5	

2626	26.250	-771.52515	48.32771	-630.31030	801.14679	52.38914	-623.37207	-688.13977	-24.00423	505.51938	729.01178	-24.58690	591.46954	11.17209	804.56860	-901.61017	
2627	26.260	-771.65729	48.63659	-630.06415	800.92938	52.74906	-623.29724	-688.36499	-24.26118	505.57187	728.79889	-24.91704	591.48560	11.01677	804.88666	-901.04865	
2628	26.270	-771.70245	48.88786	-629.95056	800.77100	53.17594	-623.23480	-688.47131	-24.50155	505.61368	728.69812	-25.14600	591.53040	10.79403	805.34161	-900.35059	
2629	26.280	-771.76904	49.14831	-629.90674	800.68890	53.58354	-623.10876	-688.58752	-24.70002	505.63327	728.62286	-25.34410	591.58801	10.65669	805.95245	-899.69287	
2630	26.290	-771.92230	49.52667	-629.85321	800.58643	53.96672	-623.02283	-688.83075	-24.88361	505.64355	728.59662	-25.64309	591.70959	10.59565	806.53149	-899.27893	
2631	26.300	-772.20520	49.97419	-629.69562	800.40735	54.37192	-622.95654	-688.97858	-24.99710	505.77026	728.55389	-25.97234	591.78864	-15.99650	729.77087	-912.85687	
2632	26.310	-772.31097	50.31294	-629.49182	800.38733	54.73050	-622.78973	-689.03735	-25.28305	505.79590	728.37970	-26.31519	591.87476	10.30717	807.39069	-898.23547	
2633	26.320	-772.40344	50.50670	-629.32080	800.24292	54.99329	-622.70880	-689.23315	-25.56773	505.88504	728.23248	-26.54344	591.93890	10.25153	807.84814	-897.82941	
2634	26.330	-772.54041	50.69611	-629.16425	800.07196	55.27414	-622.60583	-689.43646	-25.93219	505.95929	728.11426	-26.77760	592.04700	10.02987	808.32666	-897.44843	
2635	26.340	-772.66437	50.98239	-629.12762	799.87500	55.56899	-622.53979	-689.51825	-26.18835	506.09702	727.86798	-27.17739	592.12854	9.84336	808.92847	-896.91425	
2636	26.350	-772.79761	51.37058	-629.07654	799.71381	55.94512	-622.40875	-689.57593	-26.47382	506.19193	727.76581	-27.45510	592.16888	9.87602	809.36877	-896.26624	
2637	26.360	-773.09601	52.20351	-629.09564	799.53827	56.28416	-622.35211	-689.63428	-26.67529	506.21585	727.75323	-27.71174	592.25281	9.99310	809.79700	-895.72644	
2638	26.370	-773.18951	52.51336	-628.93182	799.36920	56.58266	-622.24377	-689.68634	-26.88460	506.25577	727.74646	-27.98367	592.26953	-16.85216	731.79034	-909.70245	
2639	26.380	-773.34753	52.82626	-628.79712	799.32458	56.94850	-622.06024	-689.77698	-27.08820	506.33096	727.65918	-28.19940	592.32825	9.78291	810.81836	-894.82312	
2640	26.390	-773.28772	52.97533	-628.72198	799.40137	57.24750	-621.91302	-689.93237	-27.32938	506.41824	727.47522	-28.52741	592.35321	9.58902	811.24268	-894.31311	
2641	26.400	-773.28027	53.25316	-628.62360	799.29773	57.67902	-621.86096	-690.02509	-27.59939	506.46194	727.38397	-28.83078	592.38318	9.29854	811.79175	-893.87866	
2642	26.410	-773.35919	53.57411	-628.49524	799.17279	58.01549	-621.77240	-690.10211	-27.83239	506.49680	727.29828	-29.13215	592.48267	9.14895	812.27155	-893.52283	
2643	26.420	-773.48401	53.99621	-628.37305	798.90326	58.40411	-621.67139	-690.23364	-28.09813	506.48523	727.12030	-29.51423	592.59369	9.10370	812.71680	-893.04834	
2644	26.430	-773.42065	54.18625	-628.22906	798.75665	58.78497	-621.54755	-690.24982	-28.38005	506.54593	726.95972	-29.86483	592.66565	-16.95428	735.90442	-907.00732	
2645	26.440	-773.65735	54.59114	-628.11255	798.72839	59.06026	-621.47382	-690.52484	-28.52827	506.54648	726.86273	-30.12961	592.67261	-16.60530	737.23059	-906.78888	
2646	26.450	-773.79156	54.88869	-628.00543	798.60547	59.29710	-621.30743	-690.53571	-28.91458	506.62195	726.77502	-30.27812	592.69312	8.71653	814.07294	-891.41754	
2647	26.460	-774.04108	55.31292	-627.98761	798.51044	59.54656	-621.13257	-690.70325	-29.18462	506.71646	726.68158	-30.45980	592.78369	8.65320	814.57709	-890.87653	
2648	26.470	-774.18658	55.72968	-627.92157	798.31854	59.92382	-621.00677	-690.76807	-29.42941	506.78232	726.55396	-30.73251	592.86859	8.67361	815.20190	-890.28461	
2649	26.480	-774.42010	56.31325	-627.73755	798.32111	60.24850	-620.85291	-690.92310	-29.67175	506.81573	726.35150	-31.10597	592.92120	8.59556	815.63037	-889.85321	
2650	26.490	-774.60681	56.75353	-627.58801	798.28339	60.81435	-620.80304	-690.98462	-29.91403	506.85516	726.19098	-31.55078	592.96906	8.54938	816.24817	-889.33368	
2651	26.500	-774.76105	57.05764	-627.49426	798.27405	61.25735	-620.66046	-691.11090	-30.13811	507.01825	726.09619	-31.94095	593.04938	17.11232	739.97308	-904.19733	
2652	26.510	-774.82111	57.35605	-627.35040	798.14777	61.67192	-620.58148	-691.12341	-30.52982	507.37457	726.02356	-32.31342	593.13342	7.92560	817.16394	-888.11536	
2653	26.520	-774.66290	57.56287	-627.27118	798.15674	62.04036	-620.32098	-691.21881	-30.82370	507.45486	725.94348	-32.60109	593.15863	8.00742	817.74628	-887.54364	
2654	26.530	-774.77069	58.00411	-627.11060	798.00269	62.39954	-620.27246	-691.34308	-31.06531	507.48547	725.81195	-32.84635	593.15552	8.16808	818.37585	-886.87531	
2655	26.540	-774.87537	58.51147	-627.01648	797.93939	62.64756	-620.16034	-691.53961	-31.21732	507.30524	725.71704	-33.08244	593.25763	8.13225	818.75299	-886.35089	
2656	26.550	-775.04095	58.97459	-626.98340	797.63409	62.97147	-620.17627	-691.72009	-31.66735	507.55011	725.54248	-33.35281	593.39960	7.94694	819.23303	-885.72308	
2657	26.560	-775.17352	59.35725	-626.89905	797.46393	63.30815	-619.96893	-691.77161	-31.89021	507.70801	725.40131	-33.66735	593.43713	7.60219	819.89050	-885.27557	
2658	26.570	-775.32660	59.62810	-626.78430	797.36267	63.72231	-619.73053	-691.85950	-32.06946	507.74078	725.25360	-33.94281	593.49078	35.16307	748.64233	-888.80090	
2659	26.580	-775.39630	59.83895	-626.47064	797.31012	64.20075	-619.59760	-691.96283	-32.32870	507.85150	725.17908	-34.34004	593.65466	7.21003	821.06744	-884.21313	
2660	26.590	-775.74030	60.62184	-626.37286	797.27991	64.65149	-619.52167	-692.09070	-32.66324	508.04962	725.14215	-34.83171	593.73627	7.08181	821.54083	-883.67566	
2661	26.600	-775.75201	60.95367	-626.32104	797.15057	65.09605	-619.35681	-692.34210	-32.92754	507.94788	725.08734	-35.24066	593.75891	6.93770	822.13879	-883.09491	
2662	26.610	-775.79108	61.22357	-626.16644	796.94843	65.48123	-619.22864	-692.50031	-33.26959	508.03430	724.91351	-35.64380	593.77173	6.89231	822.85809	-882.32593	
2663	26.620	-775.84515	61.62782	-625.94965	796.64429	65.99332	-619.15881	-692.63019	-33.53380	508.09500	724.72681	-35.95317	593.79022	7.16604	823.46191	-881.59442	
2664	26.630	-776.00647	62.10075	-625.75519	796.57135	66.37984	-618.97180	-692.63214	-33.83864	508.14432	724.61285	-36.31514	593.89191	15.66106	747.27075	-897.24377	
2665	26.640	-776.07312	62.55633	-625.60138	796.47864	66.73467	-618.84534	-692.65875	-34.14236	508.23099	724.48254	-36.61963	593.99347	15.19187	747.17059	-896.52258	
2666	26.650	-776.28064	63.04390	-625.44952	796.22192	67.11262	-618.63513	-692.79749	-34.51650	508.25241	724.25708	-36.98175	594.06622	6.24941	825.19128	-879.67181	
2667	26.660	-776.38513	63.38871	-625.36542	796.15375	67.50704	-618.37866	-693.00879	-34.98956	508.28925	724.18323	-37.35369	594.20789	6.36775	825.81323	-878.87128	
2668	26.670	-776.53687	63.90334	-625.18994	796.13385	68.03698	-618.27045	-693.22784	-35.32679	508.36642	724.09479	-37.76968	594.35571	6.33483	826.50348	-878.18616	
2669	26.680	-776.78772	64.54092	-625.00854	795.92926	68.62943	-618.25055	-693.29651	-35.60386	508.47165	724.04242	-38.18165	594.45740	6.22781	827.14386	-877.52130	
2670	26.690	-776.89526	64.82236	-624.84521	795.70380	69.17165	-618.07983	-693.39630	-35.90677	508.59314	723.90112	-38.62743	594.40259	5.92921	827.82373	-876.73956	
2671	26.700	-776.93854	65.25389	-624.73639	795.66333	69.67319	-617.89911	-693.54028	-36.20727	508.63629	723.75513	-39.13623	594.31757	5.50657	828.62415	-876.13190	
2672	26.710	-777.15778	65.88438	-624.56494	795.59283	69.98035	-617.66241	-693.69623	-36.50160	508.67316	723.61542	-39.49879	594.34943	5.36662	829.24384	-875.60785	
2673	26.720	-777.27283	66.41782	-624.45020	795.31256	70.44106	-617.48004	-693.90228	-36.83403	508.77441	723.46460	-39.90472	594.48895	5.50904	829.80396	-874.92572	
2674	26.730	-777.41132	66.88038	-624.26965	795.19116	70.85011	-617.29883	-694.03094	-37.25695	508.89914	723.38611	-40.26163	594.75110	5.21461	830.48523	-874.13934	
2675	26.740	-777.43005	67.12881	-624.11810	795.09705	71.34049	-617.16479	-694.13434	-37.57261	509.03223	723.31519	-40.52105	594.87097	5.09027	831.15625	-873.31714	
2676	26.750	-777.63611	67.64703	-623.85626	795.07019	71.88612	-616.98236	-694.37213	-37.97690	509.06702	723.18317	-40.94892	594.90894	5.08025	831.78418	-872.54413	
2677	26.760	-777.88562	68.13345	-623.59796	794.91180	72.51257	-616.83301	-694.51556	-38.21928	509.10999	722.96173	-41.41946	594.99799	4.84253	832.50568	-871.82245	
2678	26.770	-778.01160	68.59094	-623.49670	794.76190	72.97246	-616.70508	-694.67438	-38.53553	509.18942	722.79565	-41.89269	595.08575	-21.76601	755.50275	-887.56311	
2679	26.780	-778.18311	69.25571	-623.38507	794.65759	73.31503	-616.63354	-694.89026	-38.96268	509.35580	722.56018	-42.53215	595.18341	4.25748	833.82416	-870.44653	
